# xmcd CD database file
#
# Track frame offsets:
#	150
#	14048
#	26107
#	37296
#	50535
#	63567
#	75441
#	91772
#	103221
#	119165
#	133942
#	147131
#	178129
#
# Disc length: 3224 seconds
#
# Revision: 0
# Processed by: cddbd v1.4PL0 Copyright (c) Steve Scherf et al.
# Submitted via: CDex 1.40Beta9
#
DISCID=c40c960d
DTITLE=Various Artist - All Music Guide - Cool Country
DYEAR=2001
DGENRE=Country
TTITLE0=Glen Campbell/Rhinestone Cowboy
TTITLE1=Tammy Wynette/Stand By Your Man
TTITLE2=Roger Miller/King Of The Road
TTITLE3=Charlie Rich/Behind Closed Doors
TTITLE4=Lynn Anderson/Rose Garden
TTITLE5=Johnny Cash/Ring Of Fire
TTITLE6=Mickey Gilley/Stand By Me
TTITLE7=Sammi Smith/Help Me Make It Through The Night
TTITLE8=Willie Nelson/Always On My Mind
TTITLE9=George Jones/He Stopped Loving Her Today
TTITLE10=Dolly Parton/I Will Always Love You
TTITLE11=Marty Robbins/El Paso
TTITLE12=Enhanced CD Data
EXTD=YEAR: 2001 ID3G: 2
EXTT0=
EXTT1=
EXTT2=
EXTT3=
EXTT4=
EXTT5=
EXTT6=
EXTT7=
EXTT8=
EXTT9=
EXTT10=
EXTT11=
EXTT12=
PLAYORDER=
